pedal_clip_forces.mot
version=1
nRows=184
nColumns=4
inDegrees=yes
endheader
time	PedalClip_calcn_r_Fx	PedalClip_calcn_r_Fy	PedalClip_calcn_r_Fz
1.53910456	-22.3172743121286	34.624876576913	0
1.5392379	-22.455026920304	34.7496839571006	0
1.53949394	-22.5928862415286	34.8748676301142	0
1.53984124	-22.7308361290021	35.0004051360877	0
1.53989289	-22.8688595954784	35.126274584153	0
1.5400212	-23.0069422356512	35.2524602251145	0
1.54037693	-23.1450720667231	35.3789522247519	0
1.54050777	-23.2832394106064	35.5057453939412	0
1.54076074	-23.4214364088795	35.6328378065609	0
1.54110946	-23.5596589057339	35.7602312783019	0
1.54115827	-23.6979086690126	35.8879337909545	0
1.54128761	-23.8361940634945	36.0159600313473	0
1.54162768	-23.9745231225719	36.1443231930852	0
1.54175554	-24.112900990898	36.27303295734	0
1.54200194	-24.2513297292389	36.4020942635031	0
1.54235155	-24.3898094611506	36.5315041817497	0
1.54239722	-24.5283342571518	36.661253882145	0
1.54252771	-24.6668970541441	36.7913321322555	0
1.54284845	-24.805494148619	36.9217244152677	0
1.54297489	-24.9441165790821	37.0524153026156	0
1.54321205	-25.0827545621112	37.1833966253501	0
1.54356113	-25.2214046437467	37.3146694997111	0
1.54360407	-25.3600716859621	37.4462448225758	0
1.54373535	-25.4987680245411	37.5781394294355	0
1.54403639	-25.63750908426	37.7103712588954	0
1.54415181	-25.7763161197416	37.842962396778	0
1.54437803	-25.91521872648	37.9759424689516	0
1.54474233	-26.0542478236564	38.1093427830612	0
1.54477876	-26.1934342870734	38.2431939055004	0
1.54491262	-26.3328075801556	38.3775231147794	0
1.54517048	-26.4723908812877	38.5123474357747	0
1.54525197	-26.6121993037452	38.6476704843113	0
1.545478	-26.7522452039579	38.7834903212678	0
1.54579108	-26.8925376981273	38.9198105270938	0
1.54585026	-27.033086631932	39.0566418787434	0
1.54596878	-27.1739078979723	39.1940036268257	0
1.54634683	-27.3150288952966	39.3319265836238	0
1.54648423	-27.4564782965131	39.4704443825443	0
1.5467175	-27.5982851051734	39.6095906689022	0
1.54707587	-27.7404853811109	39.749408345109	0
1.5471117	-27.8831147440549	39.8899448011422	0
1.54724547	-28.0262062620267	40.0312450955583	0
1.54750321	-28.1697903278798	40.1733513940877	0
1.54759077	-28.3138858923932	40.3162929600756	0
1.54780627	-28.4584979455496	40.4600802530713	0
1.54812362	-28.6036219346961	40.6047081014029	0
1.54817888	-28.7492473550258	40.7501628308061	0
1.54829861	-28.895366642094	40.8964302383384	0
1.54865612	-29.041974837343	41.043494243174	0
1.54878582	-29.1890659652277	41.1913327415609	0
1.54902553	-29.3366439357954	41.3399310889432	0
1.54945301	-29.4847297363712	41.4892910784831	0
1.54949576	-29.6333505220024	41.6394212404189	0
1.54960599	-29.782544501478	41.7903396482122	0
1.54980917	-29.9323538030161	41.9420690805025	0
1.54989973	-30.0828101187961	42.0946260773393	0
1.55012775	-30.2339393910857	42.2480242415712	0
1.55041013	-30.3857640889525	42.4022765986117	0
1.55046763	-30.5383010315784	42.5573935197508	0
1.55057903	-30.6915657241294	42.7133862768853	0
1.55091213	-30.8455728814493	42.8702677524198	0
1.55104079	-31.0003298621672	43.0280482797401	0
1.55128027	-31.1558417637144	43.1867412920029	0
1.55170173	-31.3121168950195	43.3463695640754	0
1.55181674	-31.4691607551478	43.5069562142881	0
1.55202412	-31.6269784380262	43.6685275316462	0
1.5523637	-31.7855769800882	43.8311151170418	0
1.55239765	-31.9449614614263	43.9947548621029	0
1.55252838	-32.1051409652498	44.1594885106632	0
1.552769	-32.2661321541099	44.325363781636	0
1.55284644	-32.4279641918758	44.4924394252478	0
1.55305917	-32.5906842823353	44.6607881393102	0
1.55336168	-32.754351352658	44.8304876704487	0
1.55341766	-32.9190232822508	45.0016126773924	0
1.55353339	-33.0847547368432	45.1742327990486	0
1.55388799	-33.2515953080613	45.3484108790393	0
1.55401984	-33.4195785833837	45.5241956044183	0
1.55424625	-33.5887147792563	45.7016169199224	0
1.55464704	-33.7589868820068	45.8806828893112	0
1.55488693	-33.9303412085983	46.0613727000544	0
1.55512681	-34.1027190954162	46.2436546726859	0
1.55517987	-34.2760716621307	46.4274927525404	0
1.55528071	-34.4503517533459	46.6128445964936	0
1.55550573	-34.6255210362866	46.7996696407152	0
1.55559489	-34.8015483717439	46.9879269070502	0
1.55580192	-34.9783992328123	47.177568051325	0
1.55607423	-35.1560338328184	47.3685390878276	0
1.55613328	-35.3344053565636	47.5607771608832	0
1.556242	-35.5134744001943	47.7542261357676	0
1.55659177	-35.6932077763665	47.94884427045	0
1.55672888	-35.8735763199073	48.1446005339616	0
1.55695154	-36.0545549152428	48.3414629769274	0
1.55734286	-36.2361213400671	48.5393974506834	0
1.55773417	-36.4182542754253	48.7383672594545	0
1.55782184	-36.6009271895702	48.9383293214318	0
1.55798498	-36.7841094963587	49.1392359220476	0
1.55826504	-36.967764260839	49.3410331838999	0
1.55855508	-37.1518410606093	49.5436554295258	0
1.55860746	-37.3362811510557	49.7470304529897	0
1.55872016	-37.5210261262382	49.9510889830288	0
1.55903796	-37.7060113189136	50.1557613204249	0
1.55915791	-37.8911649882736	50.3609801495529	0
1.55939044	-38.0764071310718	50.5666794009516	0
1.55965597	-38.2616711870495	50.7727910611147	0
1.5598573	-38.4469011063903	50.9792427176479	0
1.56016622	-38.6320530575415	51.1859626551747	0
1.56037691	-38.8171030854965	51.3928839677875	0
1.56060561	-39.0020381188973	51.5999528653245	0
1.56080925	-39.1868538244428	51.807133638677	0
1.56106477	-39.3715402098912	52.0143941841622	0
1.56126483	-39.5560819448619	52.2217079264186	0
1.56162964	-39.740485808943	52.4290744377129	0
1.56166612	-39.9247730406274	52.6365149206011	0
1.56178615	-40.1089725070842	52.8440638923719	0
1.56201339	-40.2931187521977	53.0517681452203	0
1.56208821	-40.477248338228	53.2596738216441	0
1.56228712	-40.6613851557846	53.4678142094373	0
1.56259159	-40.8455188181496	53.6761877088325	0
1.5626339	-41.0296212922829	53.8847643931122	0
1.56275175	-41.2136549277147	54.0934975023006	0
1.56301557	-41.3975821732743	54.3023379056581	0
1.56311768	-41.5813711575275	54.511239566795	0
1.56332288	-41.7650192157698	54.7201744912719	0
1.56355324	-41.9485781946506	54.9291394131891	0
1.56375174	-42.1321358199343	55.1381552810929	0
1.56402417	-42.3157921616205	55.3472749884942	0
1.56422036	-42.4996707771312	55.5565978203702	0
1.56452512	-42.6839183153163	55.7662503730534	0
1.56456408	-42.8686676831693	55.9763713764277	0
1.56468287	-43.0540410342823	56.1871116616095	0
1.56492781	-43.2401367028847	56.3986252406129	0
1.56501684	-43.4270102036287	56.611059633321	0
1.56521315	-43.6146824542115	56.8245508712151	0
1.56544161	-43.8031557387095	57.0392112032116	0
1.5656385	-43.9924126018909	57.2551293972549	0
1.56598506	-44.1824275280661	57.4723773297681	0
1.56601971	-44.3731735727813	57.6910186036902	0
1.56606268	-44.5646339798504	57.9111103487784	0
1.56627751	-44.7568167532812	58.1327075026453	0
1.5664791	-44.9497481993539	58.3558700326857	0
1.56668259	-45.1434710601619	58.5806663880667	0
1.56688235	-45.3380662470535	58.8071856596971	0
1.56708613	-45.5336267341353	59.035520773845	0
1.56728473	-45.7302408530493	59.2657688527121	0
1.56748946	-45.9280106104925	59.4980347037667	0
1.56768686	-46.1270296343552	59.7324070476637	0
1.56789362	-46.3274071802934	59.9689741566306	0
1.5680898	-46.5292736752317	60.2078262942492	0
1.56830102	-46.7327481860808	60.4490374292689	0
1.56849595	-46.9379008496069	60.6926446827363	0
1.56871884	-47.1447466366587	60.9386505758221	0
1.56891224	-47.3532375847374	61.1870256383655	0
1.56919196	-47.5632697033125	61.4377080479534	0
1.56938173	-47.7747013928391	61.6906117306592	0
1.56971824	-47.9873783697296	61.9456348400821	0
1.56975189	-48.2011556943414	62.2026662873602	0
1.56979552	-48.4159123914012	62.4615928491868	0
1.57001365	-48.6315500907159	62.722299984244	0
1.57027222	-48.8479921320118	62.9846740928827	0
1.57032457	-49.065178055826	63.2486024254131	0
1.57042875	-49.2830534624612	63.5139703421269	0
1.57072845	-49.5015629138007	63.7806551295866	0
1.57084365	-49.7206445420018	64.0485218826826	0
1.57106382	-49.9402356554756	64.3174338356936	0
1.57126346	-50.16027359689	64.587253960338	0
1.57145676	-50.3806891943772	64.8578444530944	0
1.5716778	-50.6014121671226	65.1290677499644	0
1.57188602	-50.8223614731748	65.4007890018053	0
1.57208671	-51.0434403445183	65.672874528776	0
1.57235526	-51.2645555462485	65.9451900561879	0
1.5725421	-51.4856157601351	66.2176054901778	0
1.57287865	-51.7065349876095	66.4900038650105	0
1.57310058	-51.9272308179608	66.7622787486097	0
1.57317089	-52.1476369517933	67.0343426539654	0
1.57327393	-52.3677059474341	67.306132062353	0
1.57375953	-52.5874015834528	67.5776069139002	0
1.57383185	-52.8066924735983	67.8487490368292	0
1.57406583	-53.0255472786443	68.1195535754423	0
1.57429982	-53.243939601973	68.3900247462714	0
1.57436733	-53.4618825130064	68.6601763454615	0
1.57446993	-53.679410688075	68.9300291901121	0
1.57492854	-53.8965692059867	69.1996104657893	0
1.57500544	-54.113408022243	69.4689499479638	0
1.57519821	-54.3299840137093	69.7380827334079	0
